<svg width="15" height="15" viewBox="0 0 15 15" fill="none" xmlns="http://www.w3.org/2000/svg">
<path d="M12.3588 0.464355H2.45579C1.33771 0.464355 0.48584 1.30633 0.48584 2.41143V12.1994C0.48584 13.3045 1.33771 14.1465 2.45579 14.1465H12.3588C13.4769 14.1465 14.3287 13.3045 14.3287 12.1994V2.41143C14.3287 1.30633 13.4769 0.464355 12.3588 0.464355ZM7.40729 11.4101C9.69669 11.4101 11.5602 9.62086 11.5602 7.46329C11.5602 7.09492 11.5069 6.67394 11.4004 6.3582H12.5718V11.9363C12.5718 12.1994 12.3588 12.4625 12.0393 12.4625H2.77524C2.50903 12.4625 2.24282 12.252 2.24282 11.9363V6.30557H3.46739C3.36091 6.67394 3.30766 7.0423 3.30766 7.41067C3.25442 9.62086 5.11789 11.4101 7.40729 11.4101ZM7.40729 9.83135C5.91651 9.83135 4.74519 8.67363 4.74519 7.2528C4.74519 5.83196 5.91651 4.67424 7.40729 4.67424C8.89806 4.67424 10.0694 5.83196 10.0694 7.2528C10.0694 8.72626 8.89806 9.83135 7.40729 9.83135ZM12.5185 4.20063C12.5185 4.51637 12.2523 4.77949 11.9328 4.77949H10.4421C10.1226 4.77949 9.85642 4.51637 9.85642 4.20063V2.77979C9.85642 2.46405 10.1226 2.20093 10.4421 2.20093H11.9328C12.2523 2.20093 12.5185 2.46405 12.5185 2.77979V4.20063Z" fill="#C7C7C7"/>
</svg>
