<svg width="18" height="15" viewBox="0 0 18 15" fill="none" xmlns="http://www.w3.org/2000/svg">
<path d="M1.0429 7.40085L4.78707 8.78066L6.24666 13.4218C6.31012 13.7354 6.69088 13.7982 6.94472 13.61L9.03891 11.9166C9.22929 11.7284 9.5466 11.7284 9.80044 11.9166L13.5446 14.6135C13.7984 14.8017 14.1792 14.6762 14.2427 14.3626L17.0349 1.19169C17.0984 0.878095 16.7811 0.564504 16.4638 0.689941L1.0429 6.5855C0.662134 6.71094 0.662134 7.27541 1.0429 7.40085ZM6.05628 8.09075L13.4177 3.63772C13.5446 3.575 13.6715 3.76316 13.5446 3.82588L7.51586 9.40785C7.32548 9.596 7.1351 9.84688 7.1351 10.1605L6.94472 11.6657C6.94472 11.8539 6.62742 11.9166 6.56396 11.6657L5.80243 8.9061C5.61204 8.5925 5.73898 8.21619 6.05628 8.09075Z" fill="#C7C7C7"/>
</svg>
