<svg width="17" height="11" viewBox="0 0 17 11" fill="none" xmlns="http://www.w3.org/2000/svg">
<path d="M16.8421 9.21421C16.8421 9.14739 16.7744 9.14739 16.7744 9.08057C16.504 8.54599 15.8956 7.87777 15.0843 7.14272C14.6787 6.8086 14.4759 6.54131 14.3407 6.40766C14.1379 6.14037 14.1379 5.93991 14.2055 5.67262C14.2731 5.47215 14.5435 5.13803 15.0167 4.53663C15.2871 4.20251 15.4223 4.00205 15.6252 3.80158C16.6392 2.46513 17.1125 1.59643 16.9772 1.19549L16.9097 1.12868C16.8421 1.06185 16.7744 0.995033 16.6392 0.995033C16.504 0.92821 16.3012 0.92821 16.0984 0.995033H13.5294C13.4618 0.995033 13.4618 0.995033 13.3266 0.995033C13.259 0.995033 13.1914 0.995033 13.1914 0.995033H13.1238H13.0562L12.9886 1.06185C12.921 1.12867 12.921 1.12867 12.921 1.19549C12.6506 1.93054 12.3125 2.53195 11.9745 3.20017C11.7717 3.53429 11.5689 3.86841 11.3661 4.1357C11.1633 4.40299 11.0281 4.60345 10.8929 4.7371C10.7576 4.87074 10.6224 4.93756 10.5548 5.07121C10.4872 5.13803 10.352 5.20486 10.352 5.13804C10.2844 5.13804 10.2168 5.13803 10.2168 5.07121C10.1492 5.00439 10.0816 4.93756 10.014 4.87074C9.9464 4.80392 9.94639 4.67027 9.87878 4.53663C9.87878 4.40298 9.87878 4.26934 9.87878 4.20251C9.87878 4.13569 9.87878 3.93523 9.87878 3.80158C9.87878 3.60111 9.87878 3.46747 9.87878 3.40064C9.87878 3.20017 9.87878 2.93289 9.87878 2.6656C9.87878 2.39831 9.87878 2.19783 9.87878 2.06419C9.87878 1.93054 9.87878 1.73008 9.87878 1.59643C9.87878 1.39596 9.87878 1.26232 9.87878 1.19549C9.87878 1.12867 9.8112 0.995028 9.8112 0.928206C9.74359 0.861383 9.67597 0.794558 9.60837 0.727736C9.54077 0.660913 9.40556 0.660915 9.33796 0.594093C8.99994 0.52727 8.59432 0.460449 8.12109 0.460449C7.03942 0.460449 6.29576 0.527274 6.02534 0.660919C5.89014 0.727742 5.75493 0.794561 5.68732 0.928206C5.55211 1.06185 5.55211 1.12868 5.61971 1.12868C5.95774 1.1955 6.22816 1.32914 6.36337 1.52961L6.43098 1.66326C6.49858 1.73008 6.49857 1.86372 6.56617 2.06419C6.63378 2.26466 6.63378 2.46513 6.63378 2.73242C6.63378 3.13335 6.63378 3.53429 6.63378 3.80158C6.63378 4.1357 6.56617 4.33616 6.56617 4.53663C6.56617 4.73709 6.49858 4.87074 6.43098 4.93757C6.36337 5.07121 6.36336 5.13804 6.29576 5.13804C6.29576 5.13804 6.29575 5.20485 6.22815 5.20485C6.16055 5.20485 6.09295 5.27168 5.95774 5.27168C5.89013 5.27168 5.75493 5.20486 5.68732 5.13804C5.55211 5.07121 5.4169 4.93757 5.3493 4.80392C5.21409 4.67028 5.07888 4.4698 4.94367 4.20251C4.80846 3.93522 4.60564 3.66794 4.47043 3.267L4.33523 2.99971C4.26763 2.86607 4.13242 2.59877 3.99721 2.26466C3.862 1.93055 3.72679 1.66326 3.59158 1.32915C3.52398 1.1955 3.45638 1.12867 3.38878 1.06185H3.32117C3.32117 1.06185 3.25356 0.995033 3.18595 0.995033C3.11835 0.995033 3.05075 0.928206 2.98315 0.928206H0.549382C0.278965 0.928206 0.143758 0.995026 0.0761535 1.06185L0.00854492 1.12868C0.00854492 1.12868 0.00854492 1.1955 0.00854492 1.26232C0.00854492 1.32914 0.00854905 1.39596 0.0761535 1.52961C0.414176 2.33148 0.8198 3.13335 1.22543 3.93523C1.63105 4.67028 2.03668 5.3385 2.3071 5.80626C2.64512 6.27402 2.91554 6.74178 3.25356 7.14272C3.59158 7.54365 3.79439 7.81094 3.86199 7.94459C3.9972 8.07823 4.0648 8.14505 4.13241 8.21187L4.33523 8.41234C4.47044 8.54599 4.67325 8.74646 4.94367 8.94693C5.21409 9.14739 5.55211 9.34786 5.89013 9.54833C6.22815 9.74879 6.63378 9.88245 7.03941 10.0161C7.51264 10.1497 7.91826 10.2166 8.32389 10.1497H9.33796C9.54077 10.1497 9.67599 10.0829 9.8112 9.94927L9.87878 9.88244C9.87878 9.81562 9.94639 9.81562 9.94639 9.7488C9.94639 9.68197 9.94639 9.61515 9.94639 9.48151C9.94639 9.21422 9.9464 9.01375 10.014 8.81328C10.0816 8.61281 10.0816 8.47917 10.1492 8.34553C10.2168 8.21188 10.2844 8.14505 10.352 8.07823C10.4196 8.01141 10.4872 7.94459 10.4872 7.94459H10.5548C10.69 7.87776 10.8929 7.94458 11.0281 8.07823C11.2309 8.21187 11.4337 8.41234 11.5689 8.61281C11.7041 8.81328 11.9069 9.01375 12.1774 9.28104C12.4478 9.54833 12.6506 9.7488 12.7858 9.81562L12.9886 9.94927C13.1238 10.0161 13.259 10.0829 13.4618 10.1497C13.6646 10.2166 13.7998 10.2166 13.9351 10.2166L16.2336 10.1497C16.4364 10.1497 16.6392 10.0829 16.7744 10.0161C16.9097 9.94927 16.9772 9.88244 16.9772 9.7488C16.9772 9.68197 16.9772 9.54833 16.9772 9.48151C16.842 9.34786 16.8421 9.28104 16.8421 9.21421Z" fill="#C7C7C7"/>
</svg>
