<svg width="16" height="11" viewBox="0 0 16 11" fill="none" xmlns="http://www.w3.org/2000/svg">
<path d="M15.3805 4.02908C15.3805 3.71685 15.3279 3.35259 15.3279 2.93629C15.2752 2.51999 15.2226 2.10369 15.1699 1.73942C15.0647 1.32312 14.9067 1.0109 14.5909 0.75071C14.3277 0.490522 13.9592 0.334404 13.5907 0.282366C12.38 0.126253 10.5902 0.0742188 8.16877 0.0742188C5.74731 0.0742188 3.90489 0.126253 2.7468 0.282366C2.37832 0.334404 2.00984 0.490522 1.74664 0.75071C1.48344 1.0109 1.27287 1.32312 1.16759 1.73942C1.06231 2.10369 1.00967 2.46795 1.00967 2.93629C0.957034 3.35259 0.957031 3.71685 0.957031 4.02908C0.957031 4.34131 0.957031 4.70557 0.957031 5.22595C0.957031 5.74633 0.957031 6.16263 0.957031 6.42282C0.957031 6.73504 1.00967 7.09931 1.00967 7.51561C1.06232 7.93191 1.11495 8.34821 1.16759 8.71247C1.27287 9.12877 1.43079 9.44101 1.74664 9.70119C2.00984 9.96138 2.37832 10.1175 2.7468 10.1695C3.95753 10.3256 5.74731 10.3777 8.16877 10.3777C10.5902 10.3777 12.4326 10.3256 13.5907 10.1695C13.9592 10.1175 14.3277 9.96138 14.5909 9.70119C14.8541 9.44101 15.0647 9.12877 15.1699 8.71247C15.2752 8.34821 15.3279 7.98395 15.3279 7.51561C15.3805 7.09931 15.3805 6.73504 15.3805 6.42282C15.3805 6.11059 15.3805 5.74633 15.3805 5.22595C15.3805 4.70557 15.3805 4.28927 15.3805 4.02908ZM10.9587 5.64225L6.80012 8.1921C6.74748 8.24413 6.6422 8.29618 6.53692 8.29618C6.43163 8.29618 6.37899 8.29617 6.27371 8.24414C6.11579 8.14006 6.01051 7.98395 6.01051 7.7758V2.62406C6.01051 2.41591 6.11579 2.2598 6.27371 2.15573C6.43163 2.05165 6.6422 2.05165 6.80012 2.15573L10.9587 4.70557C11.1166 4.80965 11.2219 4.96576 11.2219 5.12187C11.2219 5.27799 11.1166 5.53818 10.9587 5.64225Z" fill="#C7C7C7"/>
</svg>
